<svg viewBox="0 0 2016 736"  version="1.1" xmlns="http://www.w3.org/2000/svg">
<g id="qubit_lines">
<path id="qubit_line:0" d="M64,64 L1984,64 " stroke="black"/>
<text dominant-baseline="central" text-anchor="end" font-family="monospace" font-size="12" x="64" y="64">q0</text>
<path id="qubit_line:1" d="M64,128 L1984,128 " stroke="black"/>
<text dominant-baseline="central" text-anchor="end" font-family="monospace" font-size="12" x="64" y="128">q1</text>
<path id="qubit_line:2" d="M64,192 L1984,192 " stroke="black"/>
<text dominant-baseline="central" text-anchor="end" font-family="monospace" font-size="12" x="64" y="192">q2</text>
<path id="qubit_line:3" d="M64,256 L1984,256 " stroke="black"/>
<text dominant-baseline="central" text-anchor="end" font-family="monospace" font-size="12" x="64" y="256">q3</text>
<path id="qubit_line:4" d="M64,320 L1984,320 " stroke="black"/>
<text dominant-baseline="central" text-anchor="end" font-family="monospace" font-size="12" x="64" y="320">q4</text>
<path id="qubit_line:5" d="M64,384 L1984,384 " stroke="black"/>
<text dominant-baseline="central" text-anchor="end" font-family="monospace" font-size="12" x="64" y="384">q5</text>
<path id="qubit_line:6" d="M64,448 L1984,448 " stroke="black"/>
<text dominant-baseline="central" text-anchor="end" font-family="monospace" font-size="12" x="64" y="448">q6</text>
<path id="qubit_line:7" d="M64,512 L1984,512 " stroke="black"/>
<text dominant-baseline="central" text-anchor="end" font-family="monospace" font-size="12" x="64" y="512">q7</text>
<path id="qubit_line:8" d="M64,576 L1984,576 " stroke="black"/>
<text dominant-baseline="central" text-anchor="end" font-family="monospace" font-size="12" x="64" y="576">q8</text>
<path id="qubit_line:9" d="M64,640 L1984,640 " stroke="black"/>
<text dominant-baseline="central" text-anchor="end" font-family="monospace" font-size="12" x="64" y="640">q9</text>
</g>
<rect x="80" y="48" width="32" height="32" stroke="black" fill="black"/>
<text dominant-baseline="central" text-anchor="middle" font-family="monospace" font-size="30" x="96" y="64" fill="white">R</text>
<rect x="80" y="112" width="32" height="32" stroke="black" fill="black"/>
<text dominant-baseline="central" text-anchor="middle" font-family="monospace" font-size="30" x="96" y="128" fill="white">R</text>
<rect x="80" y="176" width="32" height="32" stroke="black" fill="black"/>
<text dominant-baseline="central" text-anchor="middle" font-family="monospace" font-size="30" x="96" y="192" fill="white">R</text>
<rect x="80" y="240" width="32" height="32" stroke="black" fill="black"/>
<text dominant-baseline="central" text-anchor="middle" font-family="monospace" font-size="30" x="96" y="256" fill="white">R</text>
<rect x="80" y="304" width="32" height="32" stroke="black" fill="black"/>
<text dominant-baseline="central" text-anchor="middle" font-family="monospace" font-size="30" x="96" y="320" fill="white">R</text>
<rect x="80" y="368" width="32" height="32" stroke="black" fill="black"/>
<text dominant-baseline="central" text-anchor="middle" font-family="monospace" font-size="30" x="96" y="384" fill="white">R</text>
<rect x="80" y="432" width="32" height="32" stroke="black" fill="black"/>
<text dominant-baseline="central" text-anchor="middle" font-family="monospace" font-size="30" x="96" y="448" fill="white">R</text>
<rect x="80" y="496" width="32" height="32" stroke="black" fill="black"/>
<text dominant-baseline="central" text-anchor="middle" font-family="monospace" font-size="30" x="96" y="512" fill="white">R</text>
<rect x="80" y="560" width="32" height="32" stroke="black" fill="black"/>
<text dominant-baseline="central" text-anchor="middle" font-family="monospace" font-size="30" x="96" y="576" fill="white">R</text>
<rect x="80" y="624" width="32" height="32" stroke="black" fill="black"/>
<text dominant-baseline="central" text-anchor="middle" font-family="monospace" font-size="30" x="96" y="640" fill="white">R</text>
<rect x="144" y="48" width="32" height="32" stroke="black" fill="pink"/>
<text dominant-baseline="central" text-anchor="middle" font-family="monospace" font-size="12" x="160" y="64">DEP<tspan baseline-shift="sub" font-size="10">1</tspan></text>
<text dominant-baseline="hanging" text-anchor="middle" font-family="monospace" font-size="10" stroke="red" x="160" y="84">0.01</text>
<rect x="144" y="112" width="32" height="32" stroke="black" fill="pink"/>
<text dominant-baseline="central" text-anchor="middle" font-family="monospace" font-size="12" x="160" y="128">DEP<tspan baseline-shift="sub" font-size="10">1</tspan></text>
<text dominant-baseline="hanging" text-anchor="middle" font-family="monospace" font-size="10" stroke="red" x="160" y="148">0.01</text>
<rect x="144" y="176" width="32" height="32" stroke="black" fill="pink"/>
<text dominant-baseline="central" text-anchor="middle" font-family="monospace" font-size="12" x="160" y="192">DEP<tspan baseline-shift="sub" font-size="10">1</tspan></text>
<text dominant-baseline="hanging" text-anchor="middle" font-family="monospace" font-size="10" stroke="red" x="160" y="212">0.01</text>
<rect x="144" y="240" width="32" height="32" stroke="black" fill="pink"/>
<text dominant-baseline="central" text-anchor="middle" font-family="monospace" font-size="12" x="160" y="256">DEP<tspan baseline-shift="sub" font-size="10">1</tspan></text>
<text dominant-baseline="hanging" text-anchor="middle" font-family="monospace" font-size="10" stroke="red" x="160" y="276">0.01</text>
<rect x="144" y="304" width="32" height="32" stroke="black" fill="pink"/>
<text dominant-baseline="central" text-anchor="middle" font-family="monospace" font-size="12" x="160" y="320">DEP<tspan baseline-shift="sub" font-size="10">1</tspan></text>
<text dominant-baseline="hanging" text-anchor="middle" font-family="monospace" font-size="10" stroke="red" x="160" y="340">0.01</text>
<rect x="144" y="368" width="32" height="32" stroke="black" fill="pink"/>
<text dominant-baseline="central" text-anchor="middle" font-family="monospace" font-size="12" x="160" y="384">DEP<tspan baseline-shift="sub" font-size="10">1</tspan></text>
<text dominant-baseline="hanging" text-anchor="middle" font-family="monospace" font-size="10" stroke="red" x="160" y="404">0.01</text>
<rect x="144" y="432" width="32" height="32" stroke="black" fill="pink"/>
<text dominant-baseline="central" text-anchor="middle" font-family="monospace" font-size="12" x="160" y="448">DEP<tspan baseline-shift="sub" font-size="10">1</tspan></text>
<text dominant-baseline="hanging" text-anchor="middle" font-family="monospace" font-size="10" stroke="red" x="160" y="468">0.01</text>
<path d="M224,128 L224,512 " stroke="black"/>
<circle cx="224" cy="128" r="12" stroke="none" fill="black"/>
<circle cx="224" cy="512" r="12" stroke="black" fill="white"/>
<path d="M212,512 L236,512 M224,500 L224,524 " stroke="black"/>
<path d="M288,192 L288,512 " stroke="black"/>
<circle cx="288" cy="192" r="12" stroke="none" fill="black"/>
<circle cx="288" cy="512" r="12" stroke="black" fill="white"/>
<path d="M276,512 L300,512 M288,500 L288,524 " stroke="black"/>
<path d="M352,320 L352,512 " stroke="black"/>
<circle cx="352" cy="320" r="12" stroke="none" fill="black"/>
<circle cx="352" cy="512" r="12" stroke="black" fill="white"/>
<path d="M340,512 L364,512 M352,500 L352,524 " stroke="black"/>
<path d="M416,448 L416,512 " stroke="black"/>
<circle cx="416" cy="448" r="12" stroke="none" fill="black"/>
<circle cx="416" cy="512" r="12" stroke="black" fill="white"/>
<path d="M404,512 L428,512 M416,500 L416,524 " stroke="black"/>
<rect x="464" y="496" width="32" height="32" stroke="black" fill="black"/>
<text dominant-baseline="central" text-anchor="middle" font-family="monospace" font-size="30" x="480" y="512" fill="white">M</text>
<text text-anchor="middle" font-family="monospace" font-size="8" x="480" y="492">rec[0]</text>
<rect x="528" y="496" width="160" height="32" stroke="black" fill="lightgray"/>
<text dominant-baseline="central" text-anchor="middle" font-family="monospace" font-size="16" x="608" y="512">DETECTOR</text>
<text text-anchor="middle" font-family="monospace" font-size="8" x="608" y="492">D0 = rec[0]</text>
<path d="M736,64 L736,576 " stroke="black"/>
<circle cx="736" cy="64" r="12" stroke="none" fill="black"/>
<circle cx="736" cy="576" r="12" stroke="black" fill="white"/>
<path d="M724,576 L748,576 M736,564 L736,588 " stroke="black"/>
<path d="M800,128 L800,576 " stroke="black"/>
<circle cx="800" cy="128" r="12" stroke="none" fill="black"/>
<circle cx="800" cy="576" r="12" stroke="black" fill="white"/>
<path d="M788,576 L812,576 M800,564 L800,588 " stroke="black"/>
<path d="M864,256 L864,576 " stroke="black"/>
<circle cx="864" cy="256" r="12" stroke="none" fill="black"/>
<circle cx="864" cy="576" r="12" stroke="black" fill="white"/>
<path d="M852,576 L876,576 M864,564 L864,588 " stroke="black"/>
<path d="M928,448 L928,576 " stroke="black"/>
<circle cx="928" cy="448" r="12" stroke="none" fill="black"/>
<circle cx="928" cy="576" r="12" stroke="black" fill="white"/>
<path d="M916,576 L940,576 M928,564 L928,588 " stroke="black"/>
<rect x="976" y="560" width="32" height="32" stroke="black" fill="black"/>
<text dominant-baseline="central" text-anchor="middle" font-family="monospace" font-size="30" x="992" y="576" fill="white">M</text>
<text text-anchor="middle" font-family="monospace" font-size="8" x="992" y="556">rec[1]</text>
<rect x="1040" y="560" width="160" height="32" stroke="black" fill="lightgray"/>
<text dominant-baseline="central" text-anchor="middle" font-family="monospace" font-size="16" x="1120" y="576">DETECTOR</text>
<text text-anchor="middle" font-family="monospace" font-size="8" x="1120" y="556">D1 = rec[1]</text>
<path d="M1248,64 L1248,640 " stroke="black"/>
<circle cx="1248" cy="64" r="12" stroke="none" fill="black"/>
<circle cx="1248" cy="640" r="12" stroke="black" fill="white"/>
<path d="M1236,640 L1260,640 M1248,628 L1248,652 " stroke="black"/>
<path d="M1312,192 L1312,640 " stroke="black"/>
<circle cx="1312" cy="192" r="12" stroke="none" fill="black"/>
<circle cx="1312" cy="640" r="12" stroke="black" fill="white"/>
<path d="M1300,640 L1324,640 M1312,628 L1312,652 " stroke="black"/>
<path d="M1376,320 L1376,640 " stroke="black"/>
<circle cx="1376" cy="320" r="12" stroke="none" fill="black"/>
<circle cx="1376" cy="640" r="12" stroke="black" fill="white"/>
<path d="M1364,640 L1388,640 M1376,628 L1376,652 " stroke="black"/>
<path d="M1440,448 L1440,640 " stroke="black"/>
<circle cx="1440" cy="448" r="12" stroke="none" fill="black"/>
<circle cx="1440" cy="640" r="12" stroke="black" fill="white"/>
<path d="M1428,640 L1452,640 M1440,628 L1440,652 " stroke="black"/>
<rect x="1488" y="624" width="32" height="32" stroke="black" fill="black"/>
<text dominant-baseline="central" text-anchor="middle" font-family="monospace" font-size="30" x="1504" y="640" fill="white">M</text>
<text text-anchor="middle" font-family="monospace" font-size="8" x="1504" y="620">rec[2]</text>
<rect x="1552" y="624" width="160" height="32" stroke="black" fill="lightgray"/>
<text dominant-baseline="central" text-anchor="middle" font-family="monospace" font-size="16" x="1632" y="640">DETECTOR</text>
<text text-anchor="middle" font-family="monospace" font-size="8" x="1632" y="620">D2 = rec[2]</text>
<rect x="1552" y="48" width="32" height="32" stroke="black" fill="black"/>
<text dominant-baseline="central" text-anchor="middle" font-family="monospace" font-size="30" x="1568" y="64" fill="white">M</text>
<text text-anchor="middle" font-family="monospace" font-size="8" x="1568" y="44">rec[3]</text>
<rect x="1552" y="112" width="32" height="32" stroke="black" fill="black"/>
<text dominant-baseline="central" text-anchor="middle" font-family="monospace" font-size="30" x="1568" y="128" fill="white">M</text>
<text text-anchor="middle" font-family="monospace" font-size="8" x="1568" y="108">rec[4]</text>
<rect x="1552" y="176" width="32" height="32" stroke="black" fill="black"/>
<text dominant-baseline="central" text-anchor="middle" font-family="monospace" font-size="30" x="1568" y="192" fill="white">M</text>
<text text-anchor="middle" font-family="monospace" font-size="8" x="1568" y="172">rec[5]</text>
<rect x="1552" y="240" width="32" height="32" stroke="black" fill="black"/>
<text dominant-baseline="central" text-anchor="middle" font-family="monospace" font-size="30" x="1568" y="256" fill="white">M</text>
<text text-anchor="middle" font-family="monospace" font-size="8" x="1568" y="236">rec[6]</text>
<rect x="1552" y="304" width="32" height="32" stroke="black" fill="black"/>
<text dominant-baseline="central" text-anchor="middle" font-family="monospace" font-size="30" x="1568" y="320" fill="white">M</text>
<text text-anchor="middle" font-family="monospace" font-size="8" x="1568" y="300">rec[7]</text>
<rect x="1552" y="368" width="32" height="32" stroke="black" fill="black"/>
<text dominant-baseline="central" text-anchor="middle" font-family="monospace" font-size="30" x="1568" y="384" fill="white">M</text>
<text text-anchor="middle" font-family="monospace" font-size="8" x="1568" y="364">rec[8]</text>
<rect x="1552" y="432" width="32" height="32" stroke="black" fill="black"/>
<text dominant-baseline="central" text-anchor="middle" font-family="monospace" font-size="30" x="1568" y="448" fill="white">M</text>
<text text-anchor="middle" font-family="monospace" font-size="8" x="1568" y="428">rec[9]</text>
<rect x="1744" y="48" width="224" height="32" stroke="black" fill="lightgray"/>
<text dominant-baseline="central" text-anchor="middle" font-family="monospace" font-size="16" x="1856" y="64">OBS_INCLUDE(0)</text>
<text text-anchor="middle" font-family="monospace" font-size="8" x="1856" y="44">L0 *= rec[3]*rec[4]</text>
</svg>
